<?xml version="1.0" encoding="utf-8"?>
<!-- Generator: Adobe Illustrator 24.1.2, SVG Export Plug-In . SVG Version: 6.00 Build 0)  -->
<svg version="1.1" id="레이어_1" xmlns="http://www.w3.org/2000/svg" xmlns:xlink="http://www.w3.org/1999/xlink" x="0px"
	 y="0px" viewBox="0 0 298.9 70.8" style="enable-background:new 0 0 298.9 70.8;" xml:space="preserve">
<style type="text/css">
	.st0{display:none;fill:#CAC4BB;}
	.st1{display:none;fill:#00BCB4;}
	.st2{fill:#FFFFFF;}
	.st3{fill:#F8D541;}
	.st4{fill:#F77758;}
</style>
<image style="display:none;overflow:visible;enable-background:new    ;" width="248" height="50" xlink:href="C:\Users\USER\Downloads\yp_logo.png"  transform="matrix(1.135 0 0 1.1197 24.2211 12.3054)">
</image>
<path class="st0" d="M95.9,39.4h7.9c4.3,0,8.6,1.6,8.6,6.4c0,3-1.7,5-4.5,5.8v0.1c3.3,0.3,5.8,3,5.8,6.3c0,5.7-5.3,7.2-10.1,7.2
	h-7.7C95.9,65.2,95.9,39.4,95.9,39.4z M99,50.3h4.2c2.9,0,5.9-0.6,5.9-4.2c0-3.2-2.8-3.9-5.5-3.9H99V50.3z M99,62.3h5.2
	c3,0,6.2-1.2,6.2-4.5c0-3.6-3.1-4.7-6.2-4.7H99V62.3z"/>
<rect class="st1" width="298.9" height="69.7"/>
<image style="display:none;overflow:visible;" width="131" height="42" xlink:href="C:\Users\USER\Downloads\logo (1).png"  transform="matrix(1 0 0 1 91.1383 14.4)">
</image>
<path class="st2" d="M126.6,14.4v5h11.6v6.8h-11.6v15.4h22.3v10.5h5.6c0-12.6,0-25.2,0-37.7c-1.9,0-3.7,0-5.6,0c0,7.6,0,15.1,0,22.7
	h-16.3v-6.4h11.1V14.4H126.6z"/>
<path class="st2" d="M175.2,14.4h-17.6v18.9h22.9v1.6h5.5c0-6.8,0-13.6,0-20.5c-2.1,0-4.1,0-6.2,0c0,4.7,0,9.4,0,14.1h-15.6v-8.9h11
	V14.4z"/>
<path class="st2" d="M175.6,34.3c-5.9,0-10.6,4.7-10.6,10.6s4.7,10.6,10.6,10.6s10.6-4.7,10.6-10.6S181.5,34.3,175.6,34.3z
	 M175.6,50.1c-2.9,0-5.3-2.4-5.3-5.3c0-2.9,2.4-5.3,5.3-5.3s5.3,2.4,5.3,5.3C180.9,47.8,178.5,50.1,175.6,50.1z"/>
<polygon class="st2" points="189.5,14.4 189.5,19.2 201.3,19.2 201.3,22.9 189.5,22.9 189.5,34.3 210.9,34.3 210.9,35.4 217,35.4 
	217,26.7 222.1,26.7 222.1,21.3 216.6,21.3 216.6,14.4 210.9,14.4 210.9,30.3 195.2,30.3 195.2,26.8 206.9,26.8 206.9,14.4 "/>
<polygon class="st2" points="192.2,36.8 192.2,41.4 210.8,41.4 210.8,52.6 217.1,52.6 217.1,36.8 "/>
<path class="st2" d="M94.2,54.3L94.2,54.3c-1.7,0-3-1.4-3-3V17.8c0-1.7,1.4-3,3-3h0c1.7,0,3,1.4,3,3v33.5
	C97.2,52.9,95.9,54.3,94.2,54.3z"/>
<path class="st3" d="M103.7,54.3L103.7,54.3c-1.7,0-3-1.4-3-3V17.8c0-1.7,1.4-3,3-3h0c1.7,0,3,1.4,3,3v33.5
	C106.8,52.9,105.4,54.3,103.7,54.3z"/>
<path class="st4" d="M123.8,53L123.8,53c-1.6,0.6-3.3-0.2-3.9-1.8l-12-31.2c-0.6-1.6,0.2-3.3,1.8-3.9l0,0c1.6-0.6,3.3,0.2,3.9,1.8
	l12,31.2C126.1,50.6,125.3,52.4,123.8,53z"/>
</svg>
