<?xml version="1.0" encoding="utf-8"?>
<!-- Generator: Adobe Illustrator 24.1.2, SVG Export Plug-In . SVG Version: 6.00 Build 0)  -->
<svg version="1.1" id="레이어_1" xmlns="http://www.w3.org/2000/svg" xmlns:xlink="http://www.w3.org/1999/xlink" x="0px"
	 y="0px" viewBox="0 0 298.9 70.8" style="enable-background:new 0 0 298.9 70.8;" xml:space="preserve">
<style type="text/css">
	.아치형_x0020_녹색{fill:url(#SVGID_1_);stroke:#FFFFFF;stroke-width:0.25;stroke-miterlimit:1;}
	.st0{display:none;fill:#CAC4BB;}
	.st1{fill:#345938;}
	.st2{fill:#DFD800;}
	.st3{fill:#CAC4BB;}
	.st4{fill:#FED949;}
	.st5{fill:#80A0CD;}
	.st6{font-family:'Pretendard-Light';}
	.st7{font-size:30px;}
</style>
<linearGradient id="SVGID_1_" gradientUnits="userSpaceOnUse" x1="-140.7021" y1="446.4428" x2="-139.995" y2="445.7357">
	<stop  offset="0" style="stop-color:#00A53B"/>
	<stop  offset="0.9831" style="stop-color:#133618"/>
</linearGradient>
<image style="display:none;overflow:visible;" width="248" height="50" xlink:href="C:\Users\USER\Downloads\yp_logo.png"  transform="matrix(1.135 0 0 1.1197 24.2211 12.3054)">
</image>
<path class="st0" d="M95.9,39.4h7.9c4.3,0,8.6,1.6,8.6,6.4c0,3-1.7,5-4.5,5.8v0.1c3.3,0.3,5.8,3,5.8,6.3c0,5.7-5.3,7.2-10.1,7.2
	h-7.7V39.4z M99,50.3h4.2c2.9,0,5.9-0.6,5.9-4.2c0-3.2-2.8-3.9-5.5-3.9H99V50.3z M99,62.3h5.2c3,0,6.2-1.2,6.2-4.5
	c0-3.6-3.1-4.7-6.2-4.7H99V62.3z"/>
<path class="st1" d="M225.5,46.3c0-1.2,0-2.4,0-3.6c-9.9,0-19.7,0-29.6,0c0,1.2,0.1,2.3,0.1,3.5c4.3,0,8.7,0,13,0
	c0,0.9,0.1,1.8,0.1,2.7c-0.7,0.2-4.7,1.5-6.2,5.4c-0.6,1.5-0.6,2.8-0.6,3.1c0,4.8,3.9,8.7,8.7,8.7c4.9,0,8.7-4.1,8.7-8.7
	c0-3.8-2.7-7.3-6.7-8.4c0-0.9,0-1.8-0.1-2.7C217.2,46.3,221.3,46.3,225.5,46.3z M215.7,57.4c0,2.6-2.1,4.7-4.6,4.7H211
	c-2.6,0-4.7-2.1-4.7-4.7c0-2.6,2.1-4.7,4.7-4.7C213.6,52.7,215.7,54.8,215.7,57.4z"/>
<path class="st1" d="M221.4,31.4v-3.2h-21.2v3.2h3.1v6.4h-3.1V41h21.2v-3.2h-3.1v-6.4H221.4z M214.4,37.5h-7.3v-5.8h7.3V37.5z"/>
<path class="st1" d="M256.5,61.6c-5.6,0-11.1,0-16.7,0c0-2.9,0-5.8,0-8.7c-1.2,0-2.4,0-3.6,0c0,4.1,0,8.1,0,12.2
	c6.8,0,13.5,0,20.3,0C256.5,64,256.5,62.8,256.5,61.6z"/>
<path class="st1" d="M255.6,28.3h-19.1v13h19.1V28.3z M251.7,37.7h-11.2v-6h11.2V37.7z"/>
<path class="st1" d="M245,55.9h3.4c0-2.6,0-5.2,0-7.8c4.2,0,8.3,0,12.5,0c0-1.2,0-2.4,0-3.6h-29.5c0,1.2,0,2.3,0.1,3.5
	c4.5,0,9,0.1,13.5,0.1C245,50.7,245,53.3,245,55.9z"/>
<path class="st1" d="M179.7,48.5c-4.8,0-8.8,4-8.8,8.8c0,4.9,4,8.8,8.8,8.8c4.9,0,8.8-4,8.8-8.8C188.5,52.4,184.5,48.5,179.7,48.5z
	 M179.8,62.3L179.8,62.3h-0.1c-2.8,0-5-2.2-5-5c0-2.7,2.2-5,5-5c2.8,0,5,2.3,5,5C184.6,60,182.5,62.2,179.8,62.3z"/>
<path class="st1" d="M169.2,28.3c-4.7,0-8.5,3.8-8.5,8.5c0,4.7,3.8,8.5,8.5,8.5c4.7,0,8.6-3.8,8.6-8.5
	C177.8,32.1,174,28.3,169.2,28.3z M169.2,41.5c-2.6,0-4.7-2.1-4.7-4.7c0-2.6,2.1-4.7,4.7-4.7c2.6,0,4.7,2.1,4.7,4.7
	C173.9,39.4,171.8,41.5,169.2,41.5z"/>
<polygon class="st1" points="186.2,27.6 186.2,31.7 178.7,31.7 178.7,34.8 186.2,34.8 186.2,38.8 178.7,38.8 178.7,41.9 186.2,41.9 
	186.2,48.1 189.6,48.1 189.6,27.6 "/>
<g>
	<path class="st1" d="M279.7,45c-1.2,0-2.5,0-3.7,0c0,4.6,0,9.2-0.1,13.8c-3.3,0-6.6,0-9.9,0c0,1.3,0,2.5,0,3.8c9,0,18,0,26.9-0.1
		c0-1.2,0-2.5,0-3.7c-4.4,0-8.8,0-13.3,0C279.7,54.2,279.7,49.6,279.7,45z"/>
</g>
<path class="st1" d="M285,53.5c1.2,0,2.4,0,3.6,0.1h0c1.7-5.9,2.2-12.1,2.2-15v-9.7h-22.3c0,1.3,0,2.5,0,3.8
	c6.2,0,12.4-0.1,18.7-0.1c0.1,2,0.1,3.9,0.2,5.9c0,1.6,0,3.3-0.2,5.1C286.7,47.4,285.9,50.8,285,53.5z"/>
<path class="st1" d="M69.7,25.9h-11c-2.4,0-4.4,1.9-4.4,4.3c0.1,11.8,0.2,23.6,0.3,35.3c2.2,0,4.4,0,6.6,0c0-5.7-0.1-11.4-0.1-17.1
	h8.5c6.2,0,11.3-5.1,11.3-11.3C81,30.9,75.9,25.9,69.7,25.9z M69.7,42.2h-8.5V32.1h8.5c2.8,0,5,2.2,5,5
	C74.7,39.9,72.5,42.2,69.7,42.2z"/>
<path class="st1" d="M49.3,25.8c-0.6,0-1.1,0.2-1.6,0.4c-0.4,0.3-0.8,0.6-1.1,1c0,0-0.1,0.1-0.1,0.2L37.5,41L31,31
	c-0.8-1.4-1.7-2.4-2.3-3.2c-1.6-1.9-2.4-2.1-2.8-2.2c-1-0.2-1.9,0.3-2.1,0.4c-0.1,0.1-0.8,0.4-1.2,1c-0.7,1.1-0.4,2.9,0.8,4.5
	C26.9,37,30.5,42.5,34,48c0,5.9,0.1,11.7,0.1,17.6c2.2,0,4.4,0.1,6.6,0.1c0-5.9,0.1-11.9,0.1-17.8L52,31.1c0.1-0.1,0.1-0.2,0.2-0.3
	c0.2-0.4,0.4-0.8,0.4-1.3c0-0.1,0-0.3,0-0.4C52.7,27.3,51.2,25.8,49.3,25.8z"/>
<g>
	<path class="st2" d="M18,19.2c0,0-1.7-15.3,2.7-13.1C25.1,8.2,22.7,15.7,18,19.2z"/>
	<path class="st3" d="M19.7,31c0,0-20.8-8.4-14.3-10.6C17.2,16.5,20.1,28.6,19.7,31z"/>
	<path class="st4" d="M15.7,13.9c0,2.3-1.9,4.3-4.3,4.3c-2.4,0-4.3-1.9-4.3-4.3s1.9-4.3,4.3-4.3C13.8,9.6,15.7,11.5,15.7,13.9z"/>
	<path class="st5" d="M29,21.6c-3.3,1.7-8.7,3.2-8.8,1.4c-0.1-2.3,2.7-6.1,5.9-7.7c0,0,3.6-1.9,6.6-0.7C35.8,15.8,34.6,18.7,29,21.6
		z"/>
</g>
<text transform="matrix(1 0 0 1 80.9734 65.2449)" class="st3 st6 st7">Books</text>
</svg>
